<svg xmlns="http://www.w3.org/2000/svg" viewBox="0 0 283.5 129.3"><path d="M79.5 70.2c.2-1.8.3-3.8.3-5.6 0-22.1-14-41-39.3-41C18.2 23.6 0 40.8 0 63.3c0 21.5 15.8 41.4 41.6 41.4 17.1 0 30.4-10.2 36.2-21.4l-18.7-4.2c-4.4 4.6-10.5 6.8-16.5 6.8-9.2 0-17.9-5.4-19.7-15.8h56.6zM23.3 54.7c3-8.7 10.7-13.2 18.1-13.2 7.1 0 14 4.3 16.1 13.2H23.3zM283.5 0h-22.9v27.9c-5.5-3-11.2-4.3-16.8-4.3-20.8 0-39.6 16-39.6 40.7 0 23.7 17.8 40.5 41.3 40.5 6.9 0 16.2-2.1 23.7-7.7h14.2V0zm-38.7 82.7c-9.9 0-18.2-8.3-18.2-18.4 0-10 8.4-18.4 18.2-18.4 10.4 0 17.9 8 17.9 18.1.1 9.9-6.8 18.7-17.9 18.7M88.1 59.3c0 19.9 17.1 35.6 34.8 35.6 4.5 0 10.2-1.1 14.6-3.5v3.4c0 10.8-7.8 16.4-15.7 16.4-5.9 0-11.8-3.1-14.6-9.7l-18.5 4.3c4.8 12.5 16.8 23.6 34 23.6 22.2 0 36-15.3 36-42.6V30.6h-13.9c-5.7-4.3-13.2-7-21-7-19.8 0-35.7 16-35.7 35.7m21.1 0c0-8 6.6-14.6 14.6-14.6s14.6 6.6 14.6 14.6-6.6 14.6-14.6 14.6-14.6-6.5-14.6-14.6m58.3 5.8c0 7.9 6.3 14.2 14.2 14.2S196 73 196 65.1s-6.3-14.2-14.2-14.2-14.3 6.3-14.3 14.2" fill="#e13019"/></svg>